<svg width="24" height="25" viewBox="0 0 24 25" fill="none" xmlns="http://www.w3.org/2000/svg">
<path d="M18 11.6429V9.07144C18 7.48014 17.3679 5.95402 16.2427 4.8288C15.1174 3.70358 13.5913 3.07144 12 3.07144C10.4087 3.07144 8.88259 3.70358 7.75738 4.8288C6.63216 5.95402 6.00002 7.48014 6.00002 9.07144V11.6429C6.00002 14.4714 3.42859 15.1572 3.42859 16.7857C3.42859 18.2429 6.77145 19.3572 12 19.3572C17.2286 19.3572 20.5714 18.2429 20.5714 16.7857C20.5714 15.1572 18 14.4714 18 11.6429Z" stroke="currentColor" stroke-width="2.05714" stroke-miterlimit="10" stroke-linecap="square"/>
<path d="M12 21.0714C11.1334 21.0714 10.3191 21.0423 9.55286 20.9857C9.71622 21.5068 10.0417 21.9622 10.4818 22.2855C10.922 22.6088 11.4539 22.7831 12 22.7831C12.5461 22.7831 13.078 22.6088 13.5182 22.2855C13.9583 21.9622 14.2838 21.5068 14.4471 20.9857C13.6809 21.0423 12.8666 21.0714 12 21.0714Z" fill="currentColor"/>
</svg>
