<svg width="24" height="24" viewBox="0 0 24 24" fill="none" xmlns="http://www.w3.org/2000/svg">
<g clip-path="url(#clip0_132_1477)">
<path d="M12 21C10.9167 21 9.91267 20.7333 8.988 20.2C8.06334 19.6667 7.334 18.9333 6.8 18H5C4.71667 18 4.47934 17.904 4.288 17.712C4.09667 17.52 4.00067 17.2827 4 17C3.99934 16.7173 4.09534 16.48 4.288 16.288C4.48067 16.096 4.718 16 5 16H6.1C6.05 15.6667 6.02067 15.3333 6.012 15C6.00334 14.6667 5.99934 14.3333 6 14H5C4.71667 14 4.479 13.904 4.287 13.712C4.095 13.52 3.99934 13.2827 4 13C4.00067 12.7173 4.09667 12.48 4.288 12.288C4.47934 12.096 4.71667 12 5 12H6C6 11.6667 6.00434 11.3333 6.013 11C6.02167 10.6667 6.05067 10.3333 6.1 9.99999H5C4.71667 9.99999 4.47934 9.90399 4.288 9.71199C4.09667 9.51999 4.00067 9.28266 4 8.99999C3.99934 8.71733 4.09534 8.47999 4.288 8.28799C4.48067 8.09599 4.718 7.99999 5 7.99999H6.8C7.03334 7.61666 7.296 7.25833 7.588 6.92499C7.88 6.59166 8.21734 6.29999 8.6 6.04999L7.675 5.09999C7.49167 4.91666 7.4 4.68766 7.4 4.41299C7.4 4.13833 7.5 3.90066 7.7 3.69999C7.88334 3.51666 8.11667 3.42499 8.4 3.42499C8.68334 3.42499 8.91667 3.51666 9.1 3.69999L10.55 5.14999C11.0167 4.99999 11.4917 4.92499 11.975 4.92499C12.4583 4.92499 12.9333 4.99999 13.4 5.14999L14.9 3.67499C15.0833 3.49166 15.3123 3.39999 15.587 3.39999C15.8617 3.39999 16.0993 3.49999 16.3 3.69999C16.4833 3.88333 16.575 4.11666 16.575 4.39999C16.575 4.68333 16.4833 4.91666 16.3 5.09999L15.35 6.04999C15.7333 6.29999 16.079 6.58766 16.387 6.91299C16.695 7.23833 16.966 7.60066 17.2 7.99999H19C19.2833 7.99999 19.521 8.09599 19.713 8.28799C19.905 8.47999 20.0007 8.71733 20 8.99999C19.9993 9.28266 19.9033 9.52033 19.712 9.71299C19.5207 9.90566 19.2833 10.0013 19 9.99999H17.9C17.95 10.3333 17.9793 10.6667 17.988 11C17.9967 11.3333 18.0007 11.6667 18 12H19C19.2833 12 19.5207 12.096 19.712 12.288C19.9033 12.48 19.9993 12.7173 20 13C20.0007 13.2827 19.9047 13.5203 19.712 13.713C19.5193 13.9057 19.282 14.0013 19 14H18C18 14.3333 17.996 14.6667 17.988 15C17.98 15.3333 17.9507 15.6667 17.9 16H19C19.2833 16 19.521 16.096 19.713 16.288C19.905 16.48 20.0007 16.7173 20 17C19.9993 17.2827 19.9033 17.5203 19.712 17.713C19.5207 17.9057 19.2833 18.0013 19 18H17.2C16.6667 18.9333 15.9377 19.6667 15.013 20.2C14.0883 20.7333 13.084 21 12 21ZM11 16H13C13.2833 16 13.521 15.904 13.713 15.712C13.905 15.52 14.0007 15.2827 14 15C13.9993 14.7173 13.9033 14.48 13.712 14.288C13.5207 14.096 13.2833 14 13 14H11C10.7167 14 10.4793 14.096 10.288 14.288C10.0967 14.48 10.0007 14.7173 10 15C9.99934 15.2827 10.0953 15.5203 10.288 15.713C10.4807 15.9057 10.718 16.0013 11 16ZM11 12H13C13.2833 12 13.521 11.904 13.713 11.712C13.905 11.52 14.0007 11.2827 14 11C13.9993 10.7173 13.9033 10.48 13.712 10.288C13.5207 10.096 13.2833 9.99999 13 9.99999H11C10.7167 9.99999 10.4793 10.096 10.288 10.288C10.0967 10.48 10.0007 10.7173 10 11C9.99934 11.2827 10.0953 11.5203 10.288 11.713C10.4807 11.9057 10.718 12.0013 11 12Z" fill="currentColor"/>
</g>
<defs>
<clipPath id="clip0_132_1477">
<rect width="24" height="24" fill="white"/>
</clipPath>
</defs>
</svg>
