<svg xmlns="http://www.w3.org/2000/svg" width="18" height="18" viewBox="0 0 18 18" fill="none">
  <path d="M1.5 15V11.207M1.5 11.207V3.52957C1.5 2.82288 2.05964 2.25 2.75 2.25H6.8125L7.4375 2.88978H12.75L10.875 6.72849L12.75 10.5672H7.4375L6.8125 9.92742H2.75C2.05964 9.92742 1.5 10.5003 1.5 11.207Z" stroke="currentColor" stroke-width="1.5" stroke-linecap="round" stroke-linejoin="round"/>
  <path d="M16.1339 7.1154C15.6457 6.6282 14.8543 6.6282 14.3661 7.1154L7.5 13.968V15.75H9.25001L16.1339 8.87969C16.622 8.39249 16.622 7.60259 16.1339 7.1154Z" fill="white"/>
  <path d="M13.6161 7.86392L15.3839 9.62821M14.3661 7.1154C14.8543 6.6282 15.6457 6.6282 16.1339 7.1154C16.622 7.60259 16.622 8.39249 16.1339 8.87969L9.25001 15.75H7.5V13.968L14.3661 7.1154Z" stroke="currentColor" stroke-width="1.5" stroke-linecap="round" stroke-linejoin="round"/>
</svg>