<svg width="24" height="24" viewBox="0 0 24 24" fill="none" xmlns="http://www.w3.org/2000/svg">
<g clip-path="url(#clip0_132_1327)">
<path d="M12 17.5C12.2833 17.5 12.521 17.404 12.713 17.212C12.905 17.02 13.0007 16.7827 13 16.5V12.5C13 12.2167 12.904 11.9793 12.712 11.788C12.52 11.5967 12.2827 11.5007 12 11.5C11.7173 11.4993 11.48 11.5953 11.288 11.788C11.096 11.9807 11 12.218 11 12.5V16.5C11 16.7833 11.096 17.021 11.288 17.213C11.48 17.405 11.7173 17.5007 12 17.5ZM12 9.5C12.2833 9.5 12.521 9.404 12.713 9.212C12.905 9.02 13.0007 8.78267 13 8.5C12.9993 8.21733 12.9033 7.98 12.712 7.788C12.5207 7.596 12.2833 7.5 12 7.5C11.7167 7.5 11.4793 7.596 11.288 7.788C11.0967 7.98 11.0007 8.21733 11 8.5C10.9993 8.78267 11.0953 9.02033 11.288 9.213C11.4807 9.40567 11.718 9.50133 12 9.5ZM12 22.5C10.6167 22.5 9.31667 22.2373 8.1 21.712C6.88334 21.1867 5.825 20.4743 4.925 19.575C4.025 18.6757 3.31267 17.6173 2.788 16.4C2.26333 15.1827 2.00067 13.8827 2 12.5C1.99933 11.1173 2.262 9.81733 2.788 8.6C3.314 7.38267 4.02633 6.32433 4.925 5.425C5.82367 4.52567 6.882 3.81333 8.1 3.288C9.318 2.76267 10.618 2.5 12 2.5C13.382 2.5 14.682 2.76267 15.9 3.288C17.118 3.81333 18.1763 4.52567 19.075 5.425C19.9737 6.32433 20.6863 7.38267 21.213 8.6C21.7397 9.81733 22.002 11.1173 22 12.5C21.998 13.8827 21.7353 15.1827 21.212 16.4C20.6887 17.6173 19.9763 18.6757 19.075 19.575C18.1737 20.4743 17.1153 21.187 15.9 21.713C14.6847 22.239 13.3847 22.5013 12 22.5Z" fill="currentColor"/>
</g>
<defs>
<clipPath id="clip0_132_1327">
<rect width="24" height="24" fill="white"/>
</clipPath>
</defs>
</svg>
