<svg width="24" height="25" viewBox="0 0 24 25" fill="none" xmlns="http://www.w3.org/2000/svg">
<path d="M12 15.0714C13.4202 15.0714 14.5714 13.9202 14.5714 12.5C14.5714 11.0798 13.4202 9.92857 12 9.92857C10.5799 9.92857 9.42859 11.0798 9.42859 12.5C9.42859 13.9202 10.5799 15.0714 12 15.0714Z" stroke="currentColor" stroke-width="2.05714" stroke-miterlimit="10" stroke-linecap="square"/>
<path d="M18.8572 12.5C18.8561 12.0062 18.8021 11.514 18.696 11.0317L21.0223 9.27028L19.308 6.30114L16.614 7.43771C15.8845 6.76888 15.0186 6.26619 14.076 5.96428L13.7143 3.07143L10.2857 3.07143L9.92401 5.96428C8.98145 6.26619 8.11555 6.76888 7.38601 7.43771L4.69201 6.30114L2.97772 9.27028L5.30401 11.0317C5.0892 11.9988 5.0892 13.0012 5.30401 13.9683L2.97772 15.7297L4.69201 18.6989L7.38601 17.5623C8.11555 18.2311 8.98145 18.7338 9.92401 19.0357L10.2857 21.9286H13.7143L14.076 19.0357C15.0186 18.7338 15.8845 18.2311 16.614 17.5623L19.308 18.6989L21.0223 15.7297L18.696 13.9683C18.8021 13.486 18.8561 12.9938 18.8572 12.5Z" stroke="currentColor" stroke-width="2.05714" stroke-miterlimit="10" stroke-linecap="square"/>
</svg>
