<svg width="15" height="16" viewBox="0 0 15 16" fill="none" xmlns="http://www.w3.org/2000/svg">
<path fill-rule="evenodd" clip-rule="evenodd" d="M7.18501 15.5C6.16876 15.5 5.17801 15.4887 4.19776 15.4685C2.94376 15.4437 2.07601 14.6307 1.93426 13.3467C1.69801 11.2167 1.29376 6.19624 1.29001 6.14599C1.26451 5.83624 1.49551 5.56474 1.80526 5.53999C2.11051 5.53174 2.38651 5.74624 2.41126 6.05524C2.41501 6.10624 2.81851 11.1095 3.05251 13.223C3.13276 13.9527 3.52651 14.3292 4.22101 14.3435C6.09601 14.3832 8.00926 14.3855 10.0718 14.348C10.8098 14.3337 11.2088 13.9647 11.2913 13.2177C11.5238 11.1222 11.9288 6.10624 11.9333 6.05524C11.958 5.74624 12.2318 5.53024 12.5385 5.53999C12.8483 5.56549 13.0793 5.83624 13.0545 6.14599C13.05 6.19699 12.6435 11.2302 12.4095 13.3415C12.264 14.6517 11.3985 15.449 10.092 15.473C9.09226 15.4902 8.12776 15.5 7.18501 15.5Z" fill="currentColor"/>
<path fill-rule="evenodd" clip-rule="evenodd" d="M7.18501 15.5C6.16876 15.5 5.17801 15.4887 4.19776 15.4685C2.94376 15.4437 2.07601 14.6307 1.93426 13.3467C1.69801 11.2167 1.29376 6.19624 1.29001 6.14599C1.26451 5.83624 1.49551 5.56474 1.80526 5.53999C2.11051 5.53174 2.38651 5.74624 2.41126 6.05524C2.41501 6.10624 2.81851 11.1095 3.05251 13.223C3.13276 13.9527 3.52651 14.3292 4.22101 14.3435C6.09601 14.3832 8.00926 14.3855 10.0718 14.348C10.8098 14.3337 11.2088 13.9647 11.2913 13.2177C11.5238 11.1222 11.9288 6.10624 11.9333 6.05524C11.958 5.74624 12.2318 5.53024 12.5385 5.53999C12.8483 5.56549 13.0793 5.83624 13.0545 6.14599C13.05 6.19699 12.6435 11.2302 12.4095 13.3415C12.264 14.6517 11.3985 15.449 10.092 15.473C9.09226 15.4902 8.12776 15.5 7.18501 15.5Z" fill="black" fill-opacity="0.2"/>
<path fill-rule="evenodd" clip-rule="evenodd" d="M13.531 4.24197H0.8125C0.502 4.24197 0.25 3.98997 0.25 3.67947C0.25 3.36897 0.502 3.11697 0.8125 3.11697H13.531C13.8415 3.11697 14.0935 3.36897 14.0935 3.67947C14.0935 3.98997 13.8415 4.24197 13.531 4.24197Z" fill="currentColor"/>
<path fill-rule="evenodd" clip-rule="evenodd" d="M13.531 4.24197H0.8125C0.502 4.24197 0.25 3.98997 0.25 3.67947C0.25 3.36897 0.502 3.11697 0.8125 3.11697H13.531C13.8415 3.11697 14.0935 3.36897 14.0935 3.67947C14.0935 3.98997 13.8415 4.24197 13.531 4.24197Z" fill="black" fill-opacity="0.2"/>
<path fill-rule="evenodd" clip-rule="evenodd" d="M11.0799 4.24196C10.2264 4.24196 9.48545 3.63371 9.31745 2.79671L9.1352 1.88471C9.09695 1.74596 8.9387 1.62521 8.7587 1.62521H5.58395C5.40395 1.62521 5.2457 1.74596 5.19995 1.91921L5.0252 2.79671C4.85795 3.63371 4.1162 4.24196 3.2627 4.24196C2.9522 4.24196 2.7002 3.98996 2.7002 3.67946C2.7002 3.36896 2.9522 3.11696 3.2627 3.11696C3.5822 3.11696 3.8597 2.88896 3.9227 2.57546L4.10495 1.66346C4.2902 0.964464 4.89545 0.500214 5.58395 0.500214H8.7587C9.4472 0.500214 10.0524 0.964464 10.2302 1.62971L10.4207 2.57546C10.4829 2.88896 10.7604 3.11696 11.0799 3.11696C11.3904 3.11696 11.6424 3.36896 11.6424 3.67946C11.6424 3.98996 11.3904 4.24196 11.0799 4.24196Z" fill="currentColor"/>
<path fill-rule="evenodd" clip-rule="evenodd" d="M11.0799 4.24196C10.2264 4.24196 9.48545 3.63371 9.31745 2.79671L9.1352 1.88471C9.09695 1.74596 8.9387 1.62521 8.7587 1.62521H5.58395C5.40395 1.62521 5.2457 1.74596 5.19995 1.91921L5.0252 2.79671C4.85795 3.63371 4.1162 4.24196 3.2627 4.24196C2.9522 4.24196 2.7002 3.98996 2.7002 3.67946C2.7002 3.36896 2.9522 3.11696 3.2627 3.11696C3.5822 3.11696 3.8597 2.88896 3.9227 2.57546L4.10495 1.66346C4.2902 0.964464 4.89545 0.500214 5.58395 0.500214H8.7587C9.4472 0.500214 10.0524 0.964464 10.2302 1.62971L10.4207 2.57546C10.4829 2.88896 10.7604 3.11696 11.0799 3.11696C11.3904 3.11696 11.6424 3.36896 11.6424 3.67946C11.6424 3.98996 11.3904 4.24196 11.0799 4.24196Z" fill="black" fill-opacity="0.2"/>
</svg>
