<svg width="20" height="21" viewBox="0 0 20 21" fill="none" xmlns="http://www.w3.org/2000/svg">
<path d="M7.14288 5.5L7.14288 2.64285L12.8572 2.64285V5.5" stroke="currentColor" stroke-width="1.71429" stroke-miterlimit="10" stroke-linecap="square"/>
<path d="M15.7143 10.5L15.7143 16.9286C15.7143 17.3075 15.5638 17.6708 15.2959 17.9387C15.0279 18.2066 14.6646 18.3571 14.2857 18.3571L5.71428 18.3571C5.3354 18.3571 4.97203 18.2066 4.70412 17.9387C4.43622 17.6708 4.28571 17.3075 4.28571 16.9286L4.28571 10.5" stroke="currentColor" stroke-width="1.71429" stroke-miterlimit="10" stroke-linecap="square"/>
<path d="M10 11.9286V14.7857" stroke="currentColor" stroke-width="1.71429" stroke-miterlimit="10" stroke-linecap="square"/>
<path d="M7.14288 11.9286L7.14288 14.7857" stroke="currentColor" stroke-width="1.71429" stroke-miterlimit="10" stroke-linecap="square"/>
<path d="M12.8571 11.9286V14.7857" stroke="currentColor" stroke-width="1.71429" stroke-miterlimit="10" stroke-linecap="square"/>
<path d="M17.8572 5.5L2.14288 5.5L2.14288 8.35714L17.8572 8.35714V5.5Z" stroke="currentColor" stroke-width="1.71429" stroke-miterlimit="10" stroke-linecap="square"/>
</svg>
