<svg width="24" height="25" viewBox="0 0 24 25" fill="none" xmlns="http://www.w3.org/2000/svg">
<path d="M12 2.5C9.243 2.5 7 4.743 7 7.5C7 10.257 9.243 12.5 12 12.5C14.757 12.5 17 10.257 17 7.5C17 4.743 14.757 2.5 12 2.5ZM12 10.5C10.346 10.5 9 9.154 9 7.5C9 5.846 10.346 4.5 12 4.5C13.654 4.5 15 5.846 15 7.5C15 9.154 13.654 10.5 12 10.5ZM21 21.5V20.5C21 16.641 17.859 13.5 14 13.5L10 13.5C6.14 13.5 3 16.641 3 20.5V21.5H5V20.5C5 17.743 7.243 15.5 10 15.5L14 15.5C16.757 15.5 19 17.743 19 20.5L19 21.5H21Z" fill="currentColor"/>
</svg>
