<svg width="24" height="24" viewBox="0 0 24 24" fill="none" xmlns="http://www.w3.org/2000/svg">
<rect width="24" height="24" rx="12" fill="white"/>
<path d="M12.0003 8.33333C14.527 8.33333 16.7803 9.75333 17.8803 12C16.7803 14.2467 14.527 15.6667 12.0003 15.6667C9.47366 15.6667 7.22033 14.2467 6.12033 12C7.22033 9.75333 9.47366 8.33333 12.0003 8.33333ZM12.0003 7C8.66699 7 5.82033 9.07333 4.66699 12C5.82033 14.9267 8.66699 17 12.0003 17C15.3337 17 18.1803 14.9267 19.3337 12C18.1803 9.07333 15.3337 7 12.0003 7ZM12.0003 10.3333C12.9203 10.3333 13.667 11.08 13.667 12C13.667 12.92 12.9203 13.6667 12.0003 13.6667C11.0803 13.6667 10.3337 12.92 10.3337 12C10.3337 11.08 11.0803 10.3333 12.0003 10.3333ZM12.0003 9C10.347 9 9.00033 10.3467 9.00033 12C9.00033 13.6533 10.347 15 12.0003 15C13.6537 15 15.0003 13.6533 15.0003 12C15.0003 10.3467 13.6537 9 12.0003 9Z" fill="#565E6D"/>
</svg>
